<svg width="107" height="187" viewBox="0 0 107 187" fill="none" xmlns="http://www.w3.org/2000/svg">
<g clip-path="url(#clip0_3_151)">
<path d="M74.4753 186.553C73.1746 186.27 71.4517 185.875 70.6465 185.676C69.8414 185.476 68.7772 185.223 68.2817 185.113C67.7863 185.003 67.0768 184.793 66.7052 184.647C66.3336 184.5 65.8268 184.359 65.5791 184.334C65.3314 184.308 64.6726 184.153 64.1152 183.989C63.5578 183.826 62.899 183.673 62.6512 183.651C62.4035 183.628 61.6398 183.483 60.9542 183.329C59.7704 183.063 58.1427 183.092 56.9081 183.402C56.5985 183.479 55.889 183.604 55.3316 183.679C54.7742 183.754 54.1422 183.907 53.9272 184.019C53.7122 184.132 53.1041 184.319 52.5759 184.434C52.0477 184.55 51.0074 184.796 50.2642 184.982C49.521 185.168 48.3048 185.465 47.5615 185.642C46.8183 185.819 45.8207 186.078 45.3445 186.218C44.8684 186.358 44.4316 186.426 44.3738 186.369C44.316 186.311 43.7427 186.403 43.0999 186.572C41.7587 186.926 39.1461 186.979 37.9897 186.677C37.5562 186.564 36.6947 186.408 36.0753 186.331C35.456 186.254 34.0371 185.936 32.9223 185.625C31.8074 185.314 30.6419 185.016 30.3322 184.964C30.0226 184.912 29.5158 184.778 29.2062 184.666C28.1891 184.301 26.1843 183.798 25.1598 183.652C24.6066 183.573 23.9798 183.416 23.767 183.303C23.2375 183.023 19.8116 183.044 18.8446 183.334C18.4118 183.463 17.8044 183.616 17.4947 183.674C17.1851 183.731 16.6276 183.917 16.256 184.088C14.0275 185.109 12.4727 185.917 12.2685 186.161C12.1397 186.314 11.906 186.44 11.7491 186.44C11.3657 186.44 11.1111 184.994 11.4004 184.46C11.9296 183.481 14.3754 182.074 17.2695 181.082C19.3695 180.363 23.7632 180.352 25.636 181.061C25.964 181.186 26.6713 181.352 27.2078 181.431C27.7442 181.51 28.2703 181.628 28.3768 181.694C28.9224 182.027 35.6522 183.666 37.6984 183.964C39.5677 184.236 43.3836 184.078 44.5211 183.681C45.0785 183.486 45.8199 183.326 46.1687 183.324C46.5175 183.322 46.9736 183.231 47.1822 183.12C47.3908 183.01 47.9506 182.859 48.426 182.784C49.231 182.658 50.8623 182.206 52.1785 181.746C52.4882 181.637 53.0963 181.493 53.5299 181.425C53.9634 181.357 54.7742 181.163 55.3316 180.994C55.889 180.825 56.4971 180.685 56.6829 180.683C56.8687 180.681 57.8316 180.667 58.8225 180.653C60.8854 180.624 62.6784 180.809 63.2453 181.109C63.4597 181.223 63.8409 181.316 64.0925 181.316C64.3441 181.316 64.9841 181.46 65.5149 181.637C66.0457 181.814 66.7334 182.007 67.043 182.065C67.3527 182.124 68.0115 182.31 68.507 182.48C69.0024 182.65 69.5599 182.776 69.7457 182.762C69.9315 182.747 70.3418 182.859 70.6576 183.01C70.9733 183.162 71.6677 183.35 72.2008 183.429C72.7338 183.508 73.4382 183.68 73.7663 183.813C74.0943 183.945 75.8396 184.082 77.6446 184.117C80.9642 184.182 82.3577 183.987 85.8184 182.973C86.421 182.797 87.1118 182.652 87.3535 182.652C87.5951 182.652 88.0028 182.541 88.2595 182.405C88.5162 182.269 89.0416 182.114 89.4271 182.059C89.8126 182.005 90.4827 181.849 90.9163 181.714C91.3498 181.578 91.7552 181.469 91.8172 181.471C91.8791 181.473 92.2338 181.384 92.6054 181.272C93.9496 180.867 94.2165 180.83 96.4342 180.74C98.2501 180.666 98.9917 180.738 100.263 181.111C102.221 181.685 104.688 182.827 105.95 183.743C106.826 184.379 106.907 184.521 106.907 185.426C106.907 186.622 106.609 186.856 105.816 186.283C105.487 186.045 104.711 185.607 104.092 185.31C103.472 185.012 102.932 184.694 102.89 184.602C102.849 184.51 102.667 184.435 102.485 184.435C102.304 184.435 101.87 184.289 101.522 184.111C101.174 183.933 100.394 183.726 99.7879 183.65C99.1821 183.574 98.3823 183.434 98.0107 183.339C97.6391 183.244 97.183 183.189 96.9972 183.218C96.8114 183.247 96.254 183.337 95.7585 183.419C95.263 183.5 94.4333 183.612 93.9148 183.667C93.3962 183.722 92.6983 183.87 92.3638 183.995C92.0294 184.121 91.3895 184.282 90.9419 184.352C90.4943 184.422 89.976 184.56 89.7902 184.658C89.6044 184.756 89.0531 184.898 88.5651 184.975C88.0771 185.052 87.2375 185.262 86.6992 185.443C86.1609 185.624 85.5147 185.772 85.2631 185.772C85.0116 185.772 84.5896 185.886 84.3253 186.026C84.0611 186.166 83.3381 186.323 82.7188 186.376C82.0995 186.429 81.4084 186.569 81.183 186.689C80.3015 187.155 76.9343 187.087 74.4753 186.553ZM38.778 181.643C38.2402 181.513 36.0176 181.085 35.3997 180.992C35.0281 180.937 33.9639 180.68 33.0349 180.422C31.0771 179.879 29.1139 179.394 27.522 179.061C26.9054 178.932 26.2432 178.743 26.0505 178.641C25.8577 178.539 25.2886 178.394 24.7857 178.32C24.2827 178.246 23.563 178.098 23.1862 177.991C21.7625 177.587 18.6588 177.955 16.3686 178.799C15.1276 179.257 13.0712 180.329 12.3333 180.903C11.6886 181.405 11.5024 181.27 11.2938 180.147C11.1541 179.395 11.2136 179.243 11.8957 178.613C12.7348 177.837 15.583 176.375 17.4947 175.74C18.497 175.407 19.3138 175.338 21.7739 175.379C23.5033 175.409 25.0119 175.539 25.2724 175.682C25.5243 175.82 26.1797 175.999 26.7287 176.08C27.2778 176.161 27.8825 176.309 28.0725 176.41C28.2624 176.51 28.7333 176.642 29.1188 176.702C29.5043 176.762 30.0145 176.914 30.2525 177.04C30.4905 177.166 31.1345 177.336 31.6836 177.417C32.2326 177.498 32.8407 177.648 33.0349 177.751C33.229 177.854 33.8371 178.004 34.3862 178.085C34.9353 178.166 35.5639 178.327 35.7831 178.443C36.7906 178.977 42.4116 178.909 44.9715 178.333C45.2812 178.263 45.9906 178.111 46.5481 177.994C47.1055 177.878 48.3217 177.57 49.2507 177.311C50.1797 177.051 51.2267 176.786 51.5773 176.721C51.9279 176.657 52.612 176.466 53.0975 176.296C53.583 176.127 53.9803 176.027 53.9803 176.074C53.9803 176.121 54.3097 176.06 54.7123 175.938C55.1148 175.816 55.7483 175.665 56.1199 175.602C57.0133 175.451 57.3747 175.075 57.213 174.463C57.104 174.051 56.9174 173.96 56.1499 173.945C55.6379 173.935 54.6109 173.893 53.8677 173.852C53.1245 173.81 51.7056 173.755 50.7146 173.729C49.2612 173.69 48.658 173.559 47.5947 173.05C46.2285 172.397 45.1975 171.439 45.197 170.823C45.1964 170.08 45.9945 169.674 47.1542 169.829C47.7499 169.908 48.7243 169.981 49.3197 169.991C49.9151 170.002 50.5232 170.122 50.671 170.26C51.3216 170.865 53.2975 171.903 54.2493 172.14C56.3914 172.674 56.8607 172.685 57.1192 172.207C57.4622 171.573 57.4291 168.279 57.0771 168.008C56.9222 167.889 54.9713 167.767 52.7416 167.737C44.7809 167.628 44.2218 167.563 42.106 166.502C41.2005 166.048 39.8004 164.457 39.7648 163.841C39.716 162.998 39.8129 162.715 40.2871 162.316C40.7758 161.904 40.9703 161.908 43.8454 162.376C44.5267 162.487 45.3882 162.625 45.7598 162.682C46.1314 162.739 46.9868 163.055 47.6606 163.383C48.3345 163.711 49.0578 164.012 49.2679 164.052C49.4781 164.092 49.8389 164.218 50.0697 164.332C52.0673 165.321 53.8693 165.788 55.7821 165.812L57.246 165.831L57.315 164.502C57.4086 162.697 57.5929 162.524 59.2475 162.684C59.987 162.756 60.6738 162.942 60.7736 163.097C60.8735 163.253 60.9583 163.831 60.9621 164.383C60.973 165.965 61.0061 165.982 63.912 165.882C65.3244 165.833 66.8347 165.719 67.2682 165.63C68.2561 165.426 69.8836 164.604 71.3158 163.586C71.9215 163.156 72.6015 162.77 72.8268 162.73C73.1479 162.672 75.9638 162.36 76.5023 162.322C76.5642 162.318 76.8955 162.235 77.2385 162.138C77.754 161.991 77.9592 162.064 78.4209 162.557C79.1295 163.313 79.1222 163.626 78.3709 164.721C77.5841 165.868 77.11 166.254 75.6062 166.973C74.272 167.611 74.5297 167.591 65.0474 167.806C62.2311 167.87 61.3163 167.962 61.1658 168.197C61.0576 168.366 60.9674 169.274 60.9656 170.215C60.963 171.477 61.055 172.018 61.316 172.276C61.7398 172.695 61.617 172.694 63.4725 172.305C64.4154 172.107 65.5407 171.647 66.513 171.061C67.8437 170.259 68.2739 170.117 69.633 170.031C70.5001 169.976 71.4897 169.894 71.832 169.85C72.5304 169.758 73.124 170.214 73.124 170.843C73.124 171.468 72.1049 172.535 71.0037 173.063C69.7284 173.673 69.7682 173.668 65.7352 173.843C61.2221 174.04 60.9621 174.094 60.9621 174.827C60.9621 175.24 62.4479 175.817 64.2278 176.095C64.7233 176.173 65.2807 176.316 65.4665 176.414C65.6523 176.512 66.1084 176.651 66.48 176.723C66.8516 176.794 67.9158 177.062 68.8448 177.319C69.7738 177.575 71.0384 177.886 71.655 178.01C72.2716 178.134 72.9304 178.316 73.1189 178.416C74.4135 179.097 81.3517 179.09 83.1796 178.406C83.4457 178.306 84.101 178.16 84.6359 178.081C85.1708 178.002 85.7673 177.854 85.9615 177.751C86.1556 177.648 86.765 177.497 87.3156 177.416C87.8662 177.335 88.3963 177.22 88.4935 177.16C88.7954 176.976 91.8983 176.146 92.5079 176.086C92.8259 176.055 93.4646 175.906 93.9271 175.755C95.1803 175.346 98.2971 175.285 99.3627 175.649C99.8578 175.818 100.516 175.999 100.826 176.051C101.136 176.104 101.896 176.377 102.515 176.66C103.134 176.942 103.793 177.228 103.979 177.295C104.929 177.637 106.713 179.03 106.845 179.533C107.296 181.258 106.75 181.726 105.371 180.795C104.552 180.243 102.914 179.458 101.164 178.779C99.099 177.979 94.9223 177.972 92.5413 178.766C92.0105 178.943 91.296 179.088 90.9535 179.088C90.611 179.088 90.2345 179.18 90.1168 179.293C89.9991 179.406 89.3961 179.604 88.7767 179.732C88.1574 179.86 87.0425 180.116 86.2993 180.3C81.5824 181.474 80.8209 181.6 78.304 181.618C75.8842 181.636 74.5347 181.516 74.0902 181.244C73.9871 181.181 73.4522 181.063 72.9016 180.982C72.351 180.901 71.7263 180.742 71.5135 180.629C71.3007 180.517 70.9208 180.424 70.6692 180.424C70.4177 180.424 69.7776 180.28 69.2468 180.103C68.716 179.926 68.0039 179.732 67.6642 179.672C67.3246 179.612 66.7165 179.461 66.3129 179.335C63.1117 178.341 61.5372 178.074 59.0477 178.103C57.1193 178.126 55.1937 178.357 54.6833 178.628C54.4741 178.738 53.8537 178.895 53.3046 178.976C52.7556 179.057 52.1509 179.206 51.9609 179.306C51.7709 179.406 51.2162 179.551 50.7282 179.628C50.2403 179.704 49.4006 179.915 48.8623 180.096C48.324 180.276 47.6778 180.424 47.4263 180.424C47.1747 180.424 46.7558 180.537 46.4953 180.675C46.2349 180.813 45.7095 180.956 45.3277 180.994C44.2793 181.096 43.4301 181.268 43.1617 181.432C42.9282 181.575 39.2314 181.753 38.778 181.643ZM6.0682 171.564L0.159541 171.505L0.02188 170.962C-0.126179 170.379 0.514151 168.17 0.831414 168.17C0.936983 168.17 1.08184 167.988 1.15332 167.765C1.3817 167.053 4.44473 164.067 5.994 163.046C6.27285 162.862 6.70974 162.536 6.96488 162.322C7.22003 162.107 7.52526 161.932 7.64318 161.932C7.7611 161.932 8.30809 161.631 8.85872 161.264C9.40934 160.896 9.99439 160.595 10.1588 160.595C10.3232 160.595 10.5839 160.445 10.7381 160.261C10.8924 160.077 11.1392 159.927 11.2866 159.927C11.4341 159.927 12.0551 159.69 12.6667 159.401C14.2396 158.658 15.1671 158.249 16.6396 157.649C17.571 157.27 18.1116 156.87 18.6059 156.195C19.4492 155.043 20.2782 154.602 21.5675 154.62C22.4787 154.632 22.6787 154.749 23.9507 156.007C25.3677 157.409 25.6319 157.58 27.4044 158.253C29.6421 159.101 34.1218 161.406 36.0029 162.676C37.7289 163.841 40.1402 166.066 41.4162 167.671C42.5417 169.087 43.0705 171.039 42.4378 171.443C42.1706 171.613 18.7349 171.692 6.0682 171.564ZM62.2008 162.694C61.5815 162.529 60.6135 162.354 60.0497 162.306C59.486 162.257 58.8272 162.115 58.5858 161.99C58.3444 161.864 57.6047 161.698 56.9422 161.62C56.2796 161.542 55.5701 161.39 55.3656 161.282C55.1611 161.174 54.6048 161.024 54.1293 160.95C53.1733 160.8 52.3177 160.545 48.012 159.131C46.4017 158.602 44.5525 157.913 43.9028 157.599C43.2531 157.286 42.6278 157.03 42.5131 157.03C42.1977 157.03 39.0141 155.408 38.9281 155.204C38.8868 155.105 38.6588 155.025 38.4214 155.025C38.184 155.025 37.9897 154.932 37.9897 154.817C37.9897 154.703 37.785 154.545 37.5348 154.467C36.5919 154.171 33.0486 151.314 30.3906 148.706C28.8743 147.219 27.6328 145.894 27.6317 145.763C27.6305 145.632 27.2922 145.131 26.8798 144.649C25.0547 142.518 22.3918 138.014 20.3687 133.636C20.1139 133.085 19.819 132.46 19.7135 132.247C19.608 132.034 19.5217 131.732 19.5217 131.575C19.5217 131.418 19.319 130.916 19.0713 130.459C18.8235 130.002 18.6208 129.425 18.6208 129.178C18.6208 128.931 18.5342 128.555 18.4283 128.342C18.0994 127.681 17.4647 125.769 17.2641 124.836C17.1587 124.345 16.853 122.992 16.5846 121.828C16.3162 120.664 16.0499 119.06 15.9928 118.263C15.9358 117.467 15.7858 116.487 15.6596 116.087C15.3387 115.068 15.3474 104.197 15.6696 103.601C15.8063 103.349 15.9182 102.652 15.9182 102.054C15.9182 101.455 16.0669 100.47 16.2486 99.8648C16.4304 99.2594 16.6432 98.3639 16.7216 97.8748C16.8 97.3857 16.9554 96.8167 17.0669 96.6103C17.1783 96.4039 17.2695 96.024 17.2695 95.766C17.2695 95.5079 17.4722 94.9038 17.72 94.4234C17.9677 93.943 18.1704 93.2953 18.1704 92.984C18.1704 92.6728 18.2469 92.4182 18.3405 92.4182C18.4341 92.4182 18.6246 92.0923 18.764 91.6941C19.1779 90.5112 19.6265 89.4181 19.7469 89.299C19.8089 89.2377 20.3156 88.3094 20.8729 87.2361C21.4303 86.1628 22.0627 85.0599 22.2782 84.7853C22.4937 84.5107 23.203 83.4839 23.8544 82.5035C24.5058 81.5232 25.1437 80.6103 25.272 80.4749C25.4003 80.3395 26.059 79.5875 26.7359 78.8039C28.3705 76.9114 31.995 73.3382 33.2601 72.3719C33.8175 71.9462 34.3248 71.5288 34.3874 71.4443C34.6018 71.1551 38.4806 68.3557 38.667 68.3557C38.7693 68.3557 38.8868 68.2805 38.9281 68.1886C39.0172 67.9904 41.0438 66.5733 41.2382 66.5733C41.3121 66.5733 41.8576 66.2475 42.4503 65.8492C43.6658 65.0324 44.1507 64.7486 45.4948 64.0667C46.0121 63.8043 46.4861 63.5267 46.5481 63.4498C46.725 63.2302 50.8912 61.2015 51.3648 61.1043C51.5986 61.0564 51.9786 60.8481 52.2094 60.6415C52.4402 60.4349 52.629 60.3335 52.629 60.4163C52.629 60.499 53.0303 60.3642 53.5209 60.1166C54.0114 59.8691 54.5689 59.6665 54.7596 59.6665C54.9503 59.6665 55.1064 59.5779 55.1064 59.4697C55.1064 59.3614 55.3344 59.221 55.6131 59.1577C55.8918 59.0944 56.6773 58.8241 57.3586 58.5571C58.0399 58.29 58.952 57.9688 59.3856 57.8433C59.8191 57.7177 60.2952 57.5172 60.4436 57.3977C60.5919 57.2782 61.0468 57.1285 61.4544 57.0649C61.8621 57.0014 62.4704 56.8088 62.8064 56.6369C63.1423 56.4651 63.608 56.3245 63.8412 56.3245C64.0745 56.3245 64.3358 56.2547 64.422 56.1695C64.5081 56.0843 64.7024 55.9877 64.8537 55.9549C65.0049 55.9221 65.2807 55.8616 65.4665 55.8204C65.8289 55.7402 68.0448 55.105 69.228 54.7422C69.6245 54.6206 70.2989 54.4875 70.7266 54.4465C71.1543 54.4055 71.617 54.303 71.7548 54.2188C71.8926 54.1346 72.2317 54.0246 72.5083 53.9744C73.1742 53.8535 74.8962 53.4979 75.6014 53.3356C75.911 53.2643 76.6205 53.1483 77.1779 53.0779C77.7353 53.0074 78.5733 52.8524 79.0402 52.7336C79.6679 52.5737 79.9969 52.5925 80.3033 52.8057C80.8081 53.1568 81.9075 54.4305 81.9075 54.6641C81.9075 54.7572 82.1493 55.3443 82.4449 55.9688C83.5282 58.258 83.9049 59.1382 84.0556 59.732C84.1403 60.0659 84.2997 60.3942 84.4099 60.4615C84.52 60.5289 84.6102 60.929 84.6102 61.3506C84.6102 61.7723 84.6988 62.1173 84.8072 62.1173C84.9156 62.1173 85.0667 62.4261 85.143 62.8035C85.2193 63.1809 85.4191 63.8075 85.587 64.196C86.0621 65.2953 86.4119 66.4517 86.412 66.9233C86.4121 67.1597 86.6148 67.8806 86.8625 68.5252C87.1101 69.1699 87.3128 69.9268 87.3128 70.2074C87.3128 70.4879 87.4015 70.8126 87.5099 70.9291C87.8381 71.2815 88.2142 75.0165 88.2057 77.8398C88.1968 80.8552 87.5238 84.3565 86.7739 85.2886C86.6261 85.4724 86.3633 85.9028 86.19 86.2451C85.7521 87.11 82.9579 89.9275 81.4045 91.0705C79.2529 92.6535 77.3804 95.6363 76.9893 98.1032C76.8056 99.2625 76.8545 101.556 77.0765 102.19C77.1811 102.489 77.8496 102.47 79.2049 102.13C79.5146 102.052 81.4402 101.949 83.4841 101.899C86.8794 101.818 87.3289 101.853 88.6919 102.309C90.5201 102.922 92.3449 104.096 94.0463 105.756C95.3708 107.048 98.1233 110.532 98.1233 110.917C98.1233 111.036 98.1993 111.134 98.2922 111.135C98.4927 111.137 98.9767 111.91 100.431 114.555C100.71 115.063 100.989 115.528 101.051 115.589C101.172 115.709 102.115 117.642 102.41 118.374C102.653 118.977 103.066 120.585 103.327 121.939C103.446 122.552 103.647 123.517 103.775 124.085C104.079 125.437 104.07 132.383 103.764 132.95C103.634 133.189 103.529 133.659 103.529 133.996C103.529 135.415 101.86 139.97 100.549 142.127C100.206 142.692 99.9251 143.269 99.9251 143.408C99.9251 143.548 99.8237 143.662 99.6999 143.662C99.576 143.662 99.4746 143.773 99.4746 143.909C99.4746 144.044 99.1706 144.535 98.799 144.999C98.4274 145.463 98.1233 145.905 98.1233 145.98C98.1233 146.438 93.0738 151.444 91.1415 152.901C88.3841 154.981 86.0718 156.391 82.921 157.914C79.6874 159.478 78.1375 160.156 77.741 160.181C77.6171 160.189 77.2449 160.334 76.9139 160.504C76.0395 160.951 74.4687 161.454 73.4482 161.615C72.9602 161.691 72.3996 161.839 72.2024 161.943C72.0053 162.047 71.3465 162.195 70.7385 162.271C70.1305 162.348 69.2277 162.515 68.7322 162.643C67.3255 163.006 63.4827 163.036 62.2008 162.694ZM60.5773 160.205C60.4973 159.991 60.3662 159.765 60.286 159.704C60.0954 159.558 58.2749 156.956 57.6964 156.003C57.4487 155.594 57.0686 155.056 56.8518 154.806C56.6351 154.556 56.4577 154.211 56.4577 154.039C56.4577 153.866 56.3817 153.692 56.2888 153.651C56.1959 153.61 55.8715 153.025 55.5679 152.352C55.2643 151.678 54.8842 150.968 54.7233 150.774C54.5624 150.581 54.4307 150.257 54.4307 150.055C54.4307 149.852 54.2917 149.309 54.1217 148.847C53.5061 147.174 53.2408 145.541 53.2678 143.591C53.2943 141.673 53.4521 140.873 54.1325 139.206C54.5851 138.098 56.6916 135.588 57.4808 135.217C57.8471 135.045 58.1975 134.829 58.2595 134.737C58.3214 134.645 58.426 134.586 58.492 134.604C58.6538 134.651 60.2 134.003 62.6673 132.855C64.3628 132.067 65.0336 131.588 66.6099 130.041C69.0243 127.672 69.8634 126.085 70.0689 123.499C70.1549 122.417 70.1206 121.585 69.9815 121.382C69.7873 121.099 69.752 121.111 69.7491 121.462C69.741 122.44 68.2321 124.627 66.1514 126.677C64.0884 128.71 63.8591 128.865 60.4103 130.547C58.4346 131.511 56.6547 132.299 56.455 132.299C55.2941 132.299 50.8272 135.69 50.8272 136.571C50.8272 136.781 50.6131 137.312 50.3514 137.751C49.9117 138.488 49.8841 138.781 49.9889 141.607C50.1253 145.287 50.8533 148.354 52.1181 150.576C52.3643 151.009 52.9405 152.079 53.3985 152.954C53.8564 153.83 54.3773 154.666 54.5561 154.813C54.7349 154.96 54.8812 155.218 54.8812 155.387C54.8812 155.555 54.9825 155.694 55.1064 155.694C55.2303 155.694 55.3316 155.802 55.3316 155.935C55.3316 156.067 55.6694 156.593 56.0822 157.104C56.495 157.615 57.0623 158.412 57.3429 158.874C57.9021 159.797 59.1531 160.57 60.1105 160.585C60.6007 160.593 60.6938 160.517 60.5773 160.205ZM72.2712 160.363C73.2631 160.09 73.4666 159.846 73.0375 159.443C70.7051 157.254 69.9527 156.4 68.7176 154.541C67.9205 153.341 67.2682 152.289 67.2682 152.203C67.2682 152.117 67.068 151.637 66.8232 151.137C66.5784 150.637 66.3305 149.878 66.2724 149.451C66.2143 149.025 66.0533 147.973 65.9147 147.116C65.523 144.692 65.7034 140.524 66.2522 139.318C66.4195 138.95 67.3136 137.095 68.239 135.196C69.9359 131.713 70.3912 130.44 70.0204 130.213C69.9092 130.145 69.5824 130.512 69.2942 131.027C68.3577 132.703 66.3123 134.965 64.5184 136.308C62.6188 137.73 60.9812 139.497 60.6377 140.494C60.1161 142.008 60.1735 145.117 60.7559 146.901C61.0141 147.691 61.3182 148.395 61.4316 148.464C61.545 148.533 61.6378 148.786 61.6378 149.026C61.6378 149.265 61.7318 149.635 61.8468 149.848C61.9618 150.061 62.2847 150.736 62.5643 151.349C63.0943 152.51 63.881 153.746 64.1715 153.874C64.2644 153.915 64.3404 154.069 64.3404 154.216C64.3404 154.364 64.7429 154.932 65.2349 155.479C65.7268 156.026 66.1322 156.555 66.1358 156.655C66.1493 157.04 68.3289 159.321 69.2775 159.942C70.3439 160.641 70.9484 160.726 72.2712 160.363ZM48.1704 157.288C48.3217 157.255 48.2036 156.96 47.3686 155.286C47.1651 154.877 46.9985 154.4 46.9985 154.224C46.9985 154.049 46.9044 153.731 46.7894 153.518C46.5583 153.091 45.8057 150.733 45.4567 149.344C45.3336 148.854 45.0616 147.801 44.8523 147.004C44.4877 145.617 44.2431 144.138 43.8569 140.989C43.5744 138.685 43.7819 136.465 44.4114 135.057C45.2328 133.219 47.8318 130.642 49.7011 129.811C50.5063 129.453 51.3275 129.073 51.526 128.966C52.0919 128.662 54.6429 128.093 56.0073 127.968C56.6886 127.905 57.9554 127.596 58.8225 127.281C59.6896 126.965 60.5782 126.667 60.7971 126.619C61.016 126.57 61.3526 126.375 61.5451 126.185C61.7376 125.994 62.0906 125.838 62.3295 125.838C62.5684 125.838 62.7638 125.763 62.7638 125.671C62.7638 125.579 61.4209 125.482 59.7797 125.456C58.1384 125.429 55.7314 125.381 54.4307 125.349C50.949 125.263 48.7477 125.708 46.3448 126.983C45.1772 127.603 43.0798 129.584 42.0991 130.994C40.0127 133.994 39.4333 141.557 40.847 147.339C41.0268 148.074 41.2245 148.976 41.2863 149.344C41.3481 149.711 41.4809 150.213 41.5813 150.458C41.6817 150.703 42.0003 151.705 42.2892 152.686C43.0317 155.205 43.4542 155.763 45.2964 156.653C46.63 157.297 47.3778 157.462 48.1704 157.288ZM82.6395 155.682C83.104 155.554 83.4841 155.359 83.4841 155.249C83.4841 155.138 83.104 154.773 82.6395 154.438C81.4014 153.544 79.4301 151.629 79.4301 151.319C79.4301 151.172 79.3524 151.018 79.2573 150.978C79.059 150.892 77.647 149.117 77.2488 148.453C76.2952 146.861 75.3762 144.912 75.3762 144.481C75.3762 144.202 75.2844 143.879 75.1723 143.763C74.7953 143.371 74.045 140.335 73.5783 137.312C73.3182 135.628 73.2347 131.67 73.4455 131.013C73.5331 130.74 73.7426 130.517 73.9111 130.517C74.3765 130.517 75.1509 131.616 75.1509 132.277C75.1509 132.938 75.922 135.157 76.2724 135.503C76.3988 135.628 76.5023 136.053 76.5023 136.447C76.5023 136.841 76.5783 137.197 76.6712 137.238C76.7641 137.279 77.1844 137.986 77.6052 138.81C78.0261 139.633 78.5582 140.506 78.7876 140.75C79.0171 140.993 79.2049 141.289 79.2049 141.406C79.2049 141.524 79.2817 141.653 79.3757 141.694C79.4696 141.735 80.0416 142.491 80.6467 143.373C81.7175 144.935 86.4427 149.901 86.8577 149.901C86.9717 149.901 87.5008 150.189 88.0335 150.541C88.5661 150.893 89.234 151.252 89.5177 151.339C90.1579 151.534 91.6017 150.827 92.6202 149.819C93.4657 148.983 93.3073 148.505 92.0981 148.242C91.6987 148.155 91.3141 147.991 91.2434 147.878C91.1728 147.765 90.9255 147.673 90.6939 147.673C90.4623 147.673 90.1339 147.535 89.9642 147.367C89.7944 147.199 89.3058 146.884 88.8783 146.665C87.2264 145.822 84.499 143.467 82.4321 141.098C81.2855 139.784 79.4301 136.634 79.4301 136.002C79.4301 135.824 79.3541 135.645 79.2612 135.604C78.8843 135.439 77.8095 132.243 77.3858 130.029C77.1535 128.815 77.1547 128.474 77.392 128.191C77.9717 127.5 79.2049 127.9 79.2049 128.779C79.2049 129 79.3062 129.18 79.4301 129.18C79.554 129.18 79.6553 129.315 79.6553 129.48C79.6553 129.645 79.858 129.961 80.1058 130.183C80.3535 130.405 80.5562 130.701 80.5562 130.842C80.5562 131.614 85.7174 136.687 87.8191 137.981C88.0181 138.103 88.9514 138.73 89.8932 139.373C90.8349 140.017 91.7318 140.543 91.8864 140.543C92.0409 140.543 92.3777 140.689 92.6349 140.867C92.892 141.045 93.3452 141.237 93.6422 141.294C94.174 141.395 95.3025 141.823 96.6934 142.451C97.6639 142.889 98.341 142.861 98.3813 142.381C98.5209 140.718 98.0215 139.763 95.7146 137.282C94.8192 136.319 91.9728 134.082 91.6426 134.082C91.5376 134.082 91.255 133.901 91.0147 133.679C90.3157 133.035 87.1703 130.963 86.8914 130.963C86.7515 130.963 86.6371 130.881 86.6371 130.781C86.6371 130.594 86.083 130.275 82.8084 128.576C80.2968 127.272 80.1518 127.129 80.7464 126.541C81.0362 126.255 81.4044 126.119 81.7278 126.179C82.0124 126.233 82.4987 126.324 82.8084 126.383C83.1181 126.441 83.7768 126.546 84.2723 126.616C84.7678 126.686 85.5279 126.837 85.9615 126.952C86.395 127.067 87.1467 127.223 87.6319 127.299C88.1171 127.375 88.7557 127.528 89.0511 127.639C89.3465 127.75 89.9123 127.896 90.3085 127.963C91.5405 128.172 93.1292 128.728 94.8196 129.542C95.1703 129.711 95.5899 129.849 95.7521 129.849C95.9142 129.849 96.7647 130.2 97.6419 130.628C98.5192 131.057 99.2924 131.408 99.3603 131.408C99.4281 131.408 99.885 131.659 100.376 131.965C101.851 132.887 102.46 132.553 101.502 131.347C101.254 131.036 101.051 130.706 101.051 130.615C101.051 130.469 99.919 129.375 98.9361 128.571C98.7508 128.419 98.1628 128.074 97.6293 127.803C97.0959 127.532 96.6087 127.249 96.5468 127.174C96.4848 127.099 95.6234 126.806 94.6324 126.523C93.6415 126.24 92.7344 125.92 92.6167 125.812C92.499 125.704 92.1646 125.615 91.8736 125.615C91.5825 125.615 91.0643 125.472 90.722 125.297C90.3797 125.122 89.3495 124.914 88.4327 124.835C87.516 124.756 86.7116 124.66 86.6452 124.622C86.5788 124.584 85.7146 124.481 84.7247 124.395C82.6876 124.216 82.1327 124.002 82.1327 123.395C82.1327 122.516 84.0725 121.694 87.9135 120.945C89.7473 120.588 93.4659 120.512 95.0311 120.799C95.7217 120.926 96.9859 121.14 97.7255 121.255C98.0641 121.308 98.4528 121.42 98.5892 121.503C99.053 121.787 101.519 122.203 101.635 122.017C101.793 121.764 101.041 120.79 100.488 120.529C97.358 119.054 90.1963 118.877 86.1119 120.173C84.0065 120.841 83.412 120.762 83.7309 119.857C83.8498 119.52 84.1584 119.098 84.4167 118.92C84.675 118.743 85.5083 118.146 86.2685 117.594C88.2676 116.143 89.973 115.297 91.9298 114.785C92.4332 114.654 95.0103 114.508 97.1937 114.489C98.4964 114.477 98.6007 114.442 98.323 114.111C97.5722 113.216 95.0079 112.562 92.3802 112.596C90.127 112.625 89.5658 112.861 87.3128 114.727C87.0031 114.984 86.2937 115.558 85.7363 116.004C85.1788 116.45 84.6721 116.877 84.6102 116.952C84.2927 117.339 82.3582 118.119 81.5697 118.179C78.3122 118.425 77.5154 118.203 75.5668 116.503C74.9904 116.001 74.4076 115.589 74.2718 115.589C74.136 115.589 74.0248 115.501 74.0248 115.394C74.0248 115.124 72.9773 114.748 71.8394 114.608C70.7395 114.473 69.6166 114.797 69.4185 115.308C69.2477 115.748 69.6864 116.262 69.924 115.899C70.2182 115.451 70.9753 115.193 71.4633 115.376C71.7267 115.474 72.1651 115.864 72.4375 116.243C72.9295 116.926 72.9299 116.935 72.4985 117.521C72.2597 117.845 71.6692 118.329 71.1865 118.596C70.2935 119.091 69.883 119.823 70.4986 119.823C70.6832 119.823 70.8875 119.697 70.9527 119.544C71.1865 118.994 72.3975 120.696 72.5547 121.795C72.858 123.915 72.9303 127.099 72.6995 128.178C72.1445 130.772 71.7712 132.684 71.6771 133.413C71.6218 133.842 71.508 134.695 71.4241 135.307C71.0112 138.326 71.5447 141.409 73.0624 144.776C74.9956 149.065 77.0843 152.371 79.2206 154.524C80.6983 156.013 81.0283 156.124 82.6395 155.682ZM32.825 135.976C33.2082 134.75 33.8062 133.146 34.1537 132.411C34.5012 131.676 35.0184 130.498 35.303 129.793C35.5876 129.088 35.9031 128.512 36.0042 128.512C36.1053 128.512 36.188 128.378 36.188 128.213C36.188 127.562 39.6942 124.892 42.0437 123.754C45.1116 122.268 46.7948 121.883 49.9598 121.943C51.4898 121.972 53.0032 122.099 53.323 122.226C53.6428 122.353 54.4453 122.525 55.1064 122.608C55.7675 122.691 56.57 122.86 56.8898 122.984C57.5072 123.223 63.1493 123.303 63.379 123.076C63.4536 123.002 62.8643 122.936 62.0694 122.929C59.7801 122.909 58.4404 122.764 58.1827 122.509C58.0515 122.38 57.7653 122.273 57.5466 122.273C57.328 122.273 56.7148 122.135 56.1841 121.966C53.6524 121.16 52.8289 120.93 52.0295 120.805C51.5541 120.73 51.0022 120.583 50.8031 120.478C50.604 120.373 49.9156 120.236 49.2734 120.173C48.6312 120.111 48.0087 120.001 47.8901 119.928C47.4385 119.652 42.0637 119.574 41.5684 119.836C41.3002 119.978 40.7751 120.142 40.4016 120.2C40.028 120.258 39.3565 120.534 38.9092 120.814C38.462 121.093 37.5824 121.579 36.9547 121.894C36.327 122.208 35.44 122.835 34.9836 123.287C34.0411 124.219 32.7488 126.396 32.1657 128.034C31.949 128.643 31.6656 129.275 31.5358 129.439C31.406 129.603 31.1365 130.239 30.9369 130.851C30.7373 131.464 30.4116 132.467 30.2131 133.079C30.0147 133.692 29.7959 134.695 29.727 135.307C29.6581 135.92 29.5127 136.59 29.4039 136.797C29.2951 137.003 29.2062 137.523 29.2062 137.952C29.2062 138.381 29.1143 138.971 29.0021 139.262C28.8899 139.554 28.7313 140.639 28.6496 141.672C28.4809 143.808 28.4568 143.758 30.7827 146.094L32.0214 147.339L32.0747 142.771C32.1262 138.368 32.1532 138.123 32.825 135.976ZM23.5598 131.92C23.5685 131.405 23.6639 130.753 23.7717 130.472C23.8796 130.19 24.1495 129.359 24.3716 128.623C25.6422 124.418 27.4562 121.436 30.7891 118.075C33.8689 114.969 35.4513 114.098 39.5662 113.246C40.3714 113.079 41.5876 112.985 42.2689 113.036C44.7439 113.222 45.659 113.352 46.0845 113.577C46.3232 113.704 46.7044 113.807 46.9317 113.807C47.3454 113.807 51.516 115.743 51.7281 116.033C51.79 116.118 52.3981 116.573 53.0794 117.043C53.7607 117.514 54.6221 118.181 54.9938 118.526C55.3654 118.87 55.7889 119.153 55.9349 119.153C56.0809 119.154 56.3406 119.293 56.512 119.463C56.883 119.83 58.7099 120.776 58.7099 120.601C58.7099 120.534 58.9886 120.617 59.3293 120.784C60.1175 121.171 63.0647 121.68 63.5978 121.521C63.8204 121.454 64.2937 121.35 64.6496 121.289C65.3125 121.176 65.6141 121.008 65.4477 120.844C65.3407 120.739 64.2086 120.578 62.0882 120.367C61.283 120.287 60.3506 120.081 60.0161 119.911C59.6816 119.74 59.272 119.6 59.1058 119.6C58.7937 119.6 54.8561 117.439 54.656 117.158C54.594 117.071 54.378 116.908 54.1759 116.796C53.5171 116.43 51.9041 115.063 50.3465 113.549C49.507 112.733 48.4103 111.887 47.9093 111.668C47.4084 111.449 46.9985 111.19 46.9985 111.091C46.9985 110.992 46.8211 110.906 46.6044 110.901C46.3876 110.896 45.8048 110.646 45.3093 110.345C44.2032 109.675 44.237 109.689 42.7193 109.26C40.7627 108.706 37.6173 108.68 35.8501 109.203C35.7263 109.24 35.2702 109.351 34.8366 109.449C32.9213 109.885 29.7485 112.037 27.6462 114.327C27.3274 114.674 26.7593 115.276 26.3838 115.664C25.6177 116.455 24.4775 118.088 24.1022 118.931C23.9658 119.238 23.622 119.99 23.3381 120.602C23.0542 121.215 22.7473 121.917 22.656 122.162C22.5648 122.407 22.2783 123.065 22.0194 123.625C21.7605 124.184 21.5487 124.855 21.5487 125.116C21.5487 125.376 21.4473 125.651 21.3235 125.727C20.9834 125.935 21.0594 129.389 21.4264 130.406C21.8054 131.456 22.518 132.847 22.9267 133.334C23.1859 133.643 23.234 133.636 23.3803 133.268C23.4703 133.042 23.5511 132.435 23.5598 131.92ZM64.0706 125.065C64.1364 125 63.92 124.947 63.5897 124.947C63.2593 124.947 62.9891 125.042 62.9891 125.157C62.9891 125.365 63.8405 125.293 64.0706 125.065ZM65.2835 124.349C65.1209 124.285 64.9267 124.293 64.8518 124.367C64.777 124.441 64.91 124.494 65.1474 124.484C65.4098 124.473 65.4632 124.42 65.2835 124.349ZM66.1422 123.709C66.1422 123.654 66.0408 123.61 65.9169 123.61C65.7931 123.61 65.6917 123.716 65.6917 123.846C65.6917 123.976 65.7931 124.02 65.9169 123.944C66.0408 123.869 66.1422 123.763 66.1422 123.709ZM68.9011 120.096C69.2015 119.73 69.0484 119.593 68.1904 119.459C67.3869 119.334 67.2998 119.58 67.9439 120.157C68.1917 120.379 68.4061 120.72 68.4205 120.915C68.438 121.153 68.4832 121.123 68.5573 120.825C68.6182 120.58 68.7729 120.252 68.9011 120.096ZM66.3674 119.117C66.3674 119.015 66.2237 118.931 66.048 118.931C65.452 118.931 61.6044 116.781 60.653 115.916C60.5133 115.789 60.0065 115.391 59.5268 115.033C59.0471 114.674 57.858 113.408 56.8845 112.218C54.1442 108.871 49.8129 104.234 49.4216 104.229C49.3297 104.228 48.8216 103.9 48.2923 103.5C46.3099 102.003 42.2301 100.371 39.1871 99.858C36.1317 99.3428 32.0754 99.5528 29.7692 100.346C29.2737 100.516 28.6876 100.657 28.4667 100.659C27.9661 100.663 25.9545 101.648 24.9983 102.358C24.604 102.65 24.1733 102.89 24.0411 102.89C23.909 102.89 23.8009 102.983 23.8009 103.098C23.8009 103.212 23.5914 103.371 23.3354 103.452C22.8028 103.619 18.3956 107.734 18.3956 108.064C18.3956 108.183 18.1045 108.55 17.7486 108.879C16.8849 109.677 16.7465 110.466 16.938 113.498C17.0861 115.841 17.1301 116.027 17.4661 115.725C17.6676 115.543 18.0334 115.012 18.2788 114.545C18.5242 114.078 19.031 113.295 19.4049 112.804C20.2095 111.75 22.7793 109.128 23.0087 109.128C23.0967 109.128 23.6215 108.734 24.1749 108.252C25.0919 107.453 25.7966 107.018 27.7422 106.047C28.1138 105.861 28.4686 105.643 28.5305 105.562C28.5924 105.48 28.9471 105.304 29.3188 105.17C29.6904 105.037 30.5443 104.722 31.2163 104.47C31.8883 104.219 32.849 103.953 33.3511 103.879C33.8532 103.805 34.3484 103.693 34.4515 103.63C34.8102 103.41 36.0837 103.251 37.4267 103.258C39.1113 103.266 42.9179 104.172 44.2369 104.877C44.4551 104.994 45.1151 105.314 45.7035 105.589C46.2919 105.863 46.7733 106.17 46.7733 106.271C46.7733 106.372 46.9325 106.455 47.1272 106.455C47.3218 106.455 47.6135 106.586 47.7753 106.746C47.9371 106.906 48.6042 107.482 49.2576 108.027C50.4434 109.015 51.0068 109.568 55.4269 114.086C56.7158 115.403 57.8365 116.481 57.9174 116.481C57.9982 116.481 58.3869 116.721 58.7812 117.016C59.4527 117.517 60.1793 117.878 62.0882 118.657C63.3973 119.192 66.3674 119.511 66.3674 119.117ZM67.2682 116.252V115.578L66.5502 115.945L65.8322 116.313L66.4939 116.601C66.8579 116.76 67.181 116.898 67.2119 116.908C67.2429 116.918 67.2682 116.623 67.2682 116.252ZM65.4665 115.725C65.4665 115.677 65.3145 115.579 65.1287 115.509C64.9429 115.438 64.7908 115.478 64.7908 115.596C64.7908 115.715 64.9429 115.812 65.1287 115.812C65.3145 115.812 65.4665 115.773 65.4665 115.725ZM64.5656 115.009C64.5656 114.812 64.2616 114.206 63.89 113.661C63.5183 113.116 63.2143 112.62 63.2143 112.558C63.2143 112.497 62.9186 112.133 62.5571 111.75C62.1957 111.368 61.5676 110.396 61.1615 109.59C60.7554 108.785 60.3417 108.092 60.2422 108.051C60.1427 108.01 60.0612 107.805 60.0612 107.595C60.0612 107.384 59.9687 107.117 59.8555 107C59.5558 106.692 58.3559 104.561 57.5415 102.89C56.4597 100.671 54.1357 97.3448 52.6903 95.9475C51.9753 95.2562 50.6808 94.2326 49.8137 93.6729C48.9466 93.1131 48.1296 92.5653 47.998 92.4556C47.7459 92.2452 46.0649 91.4221 45.8724 91.4147C45.8105 91.4124 45.4557 91.2955 45.0841 91.1551C43.9711 90.7346 42.1981 90.2232 41.3633 90.0819C40.9323 90.009 40.2447 89.8596 39.8353 89.7501C39.4258 89.6405 37.1723 89.5511 34.8274 89.5515C32.4826 89.5518 30.4612 89.4892 30.3355 89.4124C29.9714 89.1898 30.0848 88.1176 30.5281 87.5927C31.1972 86.8001 33.1402 85.7342 33.9156 85.7342C34.3106 85.7342 34.9328 85.5812 35.2983 85.3942C35.6637 85.2073 35.9627 85.0946 35.9627 85.1438C35.9627 85.193 36.5962 85.1018 37.3704 84.941C38.7335 84.658 41.9022 84.6478 43.2824 84.9221C43.654 84.9959 44.3127 85.0956 44.7463 85.1435C45.1798 85.1915 45.94 85.3395 46.4354 85.4725C47.1985 85.6773 49.2151 86.1423 50.9398 86.5112C52.6426 86.8754 55.9034 88.4538 56.6477 89.2742C56.938 89.5942 57.5166 90.371 57.9334 91.0005C58.3502 91.63 58.8221 92.2817 58.9821 92.4487C59.2626 92.7416 59.471 93.2023 60.077 94.869C60.233 95.2979 60.4938 95.9603 60.6566 96.341C60.8194 96.7217 61.1196 97.7744 61.3237 98.6804C61.5278 99.5863 61.7498 100.478 61.817 100.662C61.8842 100.846 62.1289 101.948 62.3607 103.113C63.0184 106.416 63.0286 106.455 63.2399 106.455C63.3497 106.455 63.4395 106.592 63.4395 106.759C63.4395 107.182 64.3964 109.446 64.6134 109.537C64.711 109.578 64.7908 109.751 64.7908 109.922C64.7908 110.385 66.1027 112.726 66.7045 113.337C67.0216 113.659 67.3704 113.816 67.5865 113.734C68.1128 113.534 68.0212 112.941 67.4222 112.671C66.7923 112.387 65.6395 110.689 65.2445 109.462C65.0865 108.972 64.8819 108.471 64.7898 108.348C64.6976 108.226 64.5659 107.825 64.4971 107.457C63.9252 104.403 63.639 103.075 63.443 102.565C63.3172 102.237 63.2143 101.595 63.2143 101.137C63.2143 100.68 63.1243 100.21 63.0143 100.094C62.9043 99.9772 62.7531 99.2972 62.6782 98.5824C62.6033 97.8676 62.4016 97.0154 62.2299 96.6886C62.0583 96.3618 61.8173 95.8437 61.6943 95.5374C61.1593 94.2041 60.1242 92.2348 59.445 91.2581C59.0407 90.6766 58.7094 90.1233 58.7089 90.0284C58.7083 89.9336 58.4275 89.5552 58.085 89.1876C57.7424 88.8199 57.0588 88.0251 56.5658 87.4212C55.0714 85.5907 53.0265 83.5062 52.7252 83.5062C52.5691 83.5062 52.4075 83.4206 52.3662 83.316C52.2811 83.1003 47.5337 79.4957 47.3347 79.4957C47.1133 79.4957 45.7895 78.5225 45.1404 77.8825C44.379 77.1317 44.3619 76.7555 45.0643 76.2089C45.9785 75.4976 47.6933 75.8093 50.4331 77.1848C51.2692 77.6046 51.9533 77.8896 51.9533 77.8181C51.9533 77.7466 52.232 77.8435 52.5727 78.0334C52.9133 78.2233 53.4454 78.4768 53.7551 78.5967C55.5271 79.2829 58.2507 81.1866 60.5154 83.322C61.2245 83.9906 62.9891 86.484 62.9891 86.8174C62.9891 86.9364 63.0651 87.0672 63.158 87.1081C63.3148 87.177 63.9724 88.4397 64.5311 89.7446C64.985 90.8047 65.6917 93.4715 65.6917 94.1243C65.6917 94.4849 65.7922 94.8793 65.9151 95.0009C66.0415 95.1259 66.2003 97.4922 66.2808 100.448C66.3591 103.323 66.4502 105.706 66.4833 105.743C66.6206 105.9 67.101 103.104 67.1998 101.572C67.2585 100.663 67.4495 99.704 67.6245 99.4399C67.7994 99.1758 67.998 98.3652 68.0659 97.6385C68.1338 96.9118 68.2966 95.9007 68.4277 95.3917C68.5587 94.8827 68.6126 93.9303 68.5475 93.2751C68.4823 92.62 68.3713 91.4323 68.3008 90.6358C68.2304 89.8393 68.1253 88.6793 68.0674 88.058C67.9568 86.8727 66.5078 82.2192 66.1342 81.8495C66.0147 81.7313 65.9088 81.4291 65.8988 81.1779C65.8888 80.9267 65.645 80.3201 65.357 79.8299C65.069 79.3398 64.5651 78.4256 64.2372 77.7984C63.9092 77.1712 63.4592 76.4651 63.237 76.2292C62.8446 75.8125 62.5514 75.3214 61.7289 73.7029C61.5109 73.274 61.1479 72.657 60.9221 72.3317C60.6964 72.0065 60.5117 71.5887 60.5117 71.4034C60.5117 71.2181 60.3943 71.0278 60.2509 70.9805C59.7915 70.829 59.9882 69.4147 60.5243 69.0147C60.9564 68.6923 61.1207 68.6847 61.9027 68.9512C62.9767 69.3173 65.4368 70.5304 65.8239 70.8849C65.9775 71.0256 66.4262 71.3856 66.8208 71.6848C68.3809 72.8677 69.8102 74.5693 70.4199 75.9698C70.5439 76.2548 70.7362 76.6383 70.8472 76.8221C70.9581 77.0059 71.3634 77.7838 71.7478 78.5506C72.1322 79.3175 72.5397 80.1196 72.6533 80.333C72.7669 80.5465 73.0803 81.5007 73.3496 82.4534C73.7861 83.9974 73.8283 84.5786 73.7376 87.8006C73.6625 90.4665 73.5074 91.942 73.1468 93.4208C72.8779 94.5236 72.6009 95.7268 72.5313 96.0944C72.4617 96.462 72.2119 97.1704 71.9761 97.6686C71.7403 98.1668 71.5474 98.7447 71.5474 98.9528C71.5474 99.1608 71.4572 99.5051 71.3469 99.7179C71.004 100.38 70.1894 103.199 70.1928 103.712C70.1946 103.981 70.1055 104.256 69.9947 104.323C69.7126 104.496 69.5017 105.958 69.3749 108.622L69.2664 110.901L69.9002 110.626C70.8208 110.226 72.4699 109.119 73.1466 108.447C73.959 107.64 75.3773 104.64 75.3706 103.743C75.3676 103.335 75.2565 102.55 75.1236 101.999C74.815 100.717 74.8233 97.7776 75.1365 97.4678C75.2683 97.3374 75.3762 97.045 75.3762 96.8181C75.3762 96.3783 76.2756 94.5849 76.5586 94.4605C76.6515 94.4197 76.7275 94.264 76.7275 94.1145C76.7275 93.4817 79.384 90.3424 80.331 89.856C81.0523 89.4855 82.1062 88.4865 82.9405 87.3823C83.3014 86.9047 83.8183 86.2711 84.0893 85.9743C84.5184 85.5042 85.3492 83.2555 85.8653 81.1667C85.9562 80.7991 86.0707 79.142 86.1199 77.4841C86.2026 74.6926 86.1585 74.2738 85.5223 71.8163C85.1445 70.3567 84.8354 68.9309 84.8354 68.6478C84.8354 68.3646 84.747 68.1329 84.6389 68.1329C84.5309 68.1329 84.3779 67.7333 84.2989 67.2448C84.22 66.7563 84.0141 66.0294 83.8414 65.6295C83.6686 65.2295 83.3997 64.4511 83.2436 63.8997C82.9374 62.8179 82.2219 60.9089 81.8871 60.2804C81.7732 60.0666 81.4686 59.2144 81.2101 58.3866C80.5825 56.376 79.8314 54.9496 79.3011 54.7609C79.0624 54.6759 78.2083 54.7456 77.4031 54.9158C76.598 55.0859 75.4382 55.278 74.826 55.3426C74.2137 55.4072 73.6056 55.5264 73.4746 55.6075C73.2128 55.7697 73.2208 55.7681 71.7726 55.944C71.2152 56.0117 70.4908 56.1688 70.1627 56.2931C69.8347 56.4173 69.1274 56.5837 68.591 56.6629C68.0545 56.7421 67.5284 56.8601 67.4219 56.9252C67.3154 56.9904 66.7558 57.1743 66.1784 57.334C65.6011 57.4937 64.5712 57.8389 63.89 58.1012C63.2087 58.3635 62.4486 58.6204 62.2008 58.6721C61.7355 58.7691 61.585 58.8287 59.7737 59.6339C59.182 59.8969 58.6018 60.1121 58.4844 60.1121C58.367 60.1121 57.3309 60.5559 56.182 61.0982C55.033 61.6406 53.4848 62.3514 52.7416 62.6778C51.9984 63.0042 51.0071 63.4628 50.5388 63.6969C50.0704 63.931 49.5384 64.1225 49.3564 64.1225C49.1744 64.1225 49.0255 64.2119 49.0255 64.3211C49.0255 64.4304 48.7478 64.5887 48.4084 64.673C48.069 64.7573 47.7396 64.8935 47.6764 64.9757C47.6132 65.0579 47.0041 65.4168 46.3228 65.7733C45.6415 66.1298 44.3474 66.9069 43.4469 67.5C42.5465 68.0932 41.7188 68.5785 41.6076 68.5785C41.4965 68.5785 41.3718 68.6643 41.3305 68.7691C41.2892 68.8739 40.6801 69.3523 39.9771 69.8323C39.274 70.3122 38.3574 71.0035 37.9402 71.3684C37.523 71.7333 36.8442 72.2697 36.4318 72.5602C34.5208 73.9066 26.954 81.334 26.954 81.8634C26.954 82.0317 26.8526 82.1693 26.7287 82.1693C26.6049 82.1693 26.5035 82.2985 26.5035 82.4563C26.5035 82.6141 26.2036 83.0903 25.837 83.5146C25.4704 83.9388 25.1664 84.4155 25.1614 84.5738C25.1563 84.7321 24.9546 85.0715 24.713 85.328C24.4714 85.5845 24.1122 86.1066 23.9147 86.4883C23.7172 86.8701 23.3585 87.4831 23.1177 87.8508C22.8768 88.2184 22.6206 88.6696 22.5482 88.8534C22.4148 89.1922 22.2629 89.4981 21.8286 90.3016C21.1702 91.5199 20.1974 93.683 20.1974 93.9288C20.1974 94.0816 20.1083 94.3807 19.9993 94.5935C19.6637 95.2493 18.9941 97.3788 18.7919 98.4338C18.3872 100.545 18.2077 102.116 18.355 102.257C18.4393 102.338 19.3159 101.661 20.3031 100.753C21.2903 99.8451 22.2278 99.1022 22.3864 99.1022C22.545 99.1022 22.6754 99.027 22.6762 98.9351C22.6803 98.4567 28.8159 95.3361 31.7962 94.2967C33.3448 93.7566 40.7901 93.6113 42.1746 94.0941C42.6801 94.2704 43.3037 94.4464 43.5602 94.4851C43.8168 94.5239 44.1633 94.6632 44.3302 94.7948C44.4971 94.9263 45.5965 95.5202 46.7733 96.1146C50.9725 98.2355 53.7654 100.925 55.545 104.561C55.9648 105.419 56.4603 106.421 56.6459 106.789C57.233 107.951 59.3043 111.005 59.8052 111.446C60.0699 111.68 60.2864 111.959 60.2864 112.066C60.2864 112.423 63.9227 115.367 64.363 115.367C64.4744 115.367 64.5656 115.206 64.5656 115.009ZM19.2965 153.676C17.5804 153.397 16.6897 153.044 15.1847 152.049C13.0972 150.669 10.5129 147.629 10.5129 146.552C10.5129 146.325 10.4221 146.084 10.3111 146.016C10.2002 145.948 9.98844 145.05 9.84067 144.02C9.23788 139.819 10.8234 135.782 14.1372 133.079C15.0874 132.304 17.086 131.345 17.925 131.26C18.7065 131.182 18.7513 131.218 19.2695 132.352C19.5644 132.997 19.903 133.776 20.022 134.082C20.141 134.388 20.4318 135.01 20.6683 135.463C20.9048 135.916 21.0982 136.442 21.0982 136.633C21.0982 136.823 21.1996 136.978 21.3235 136.978C21.4473 136.978 21.5487 137.084 21.5487 137.213C21.5487 137.403 23.3756 140.588 24.3629 142.119C25.2862 143.551 26.1294 144.716 26.6718 145.307C27.0221 145.689 27.6235 146.453 28.0083 147.004C28.393 147.556 28.9813 148.258 29.3155 148.564C30.3855 149.545 30.4233 149.81 29.6048 150.594C28.7203 151.442 26.8329 152.67 26.0531 152.905C25.7434 152.998 25.3887 153.153 25.2648 153.249C24.7039 153.683 20.9745 153.95 19.2965 153.676ZM4.82613 144.536C3.88664 143.994 3.75634 143.241 3.75634 138.35C3.75634 134.312 3.81789 133.477 4.21319 132.156C4.46446 131.316 4.7685 130.454 4.88885 130.242C5.0092 130.029 5.10766 129.746 5.10766 129.613C5.10766 129.238 6.46888 127.355 7.23443 126.671C7.61309 126.333 8.17628 125.998 8.48595 125.927C8.79563 125.856 9.40372 125.691 9.83727 125.56C10.2708 125.429 10.6762 125.323 10.7381 125.325C10.8001 125.328 11.1548 125.238 11.5264 125.126C12.587 124.807 13.024 124.721 14.2101 124.597C14.819 124.534 15.4027 124.43 15.5071 124.366C16.1088 123.998 17.0443 125.038 17.0443 126.075C17.0443 126.316 17.1381 126.687 17.2528 126.9C17.3675 127.112 17.6063 127.738 17.7836 128.289C17.9608 128.84 18.1733 129.445 18.2557 129.632C18.5408 130.28 17.8941 130.7 16.3686 130.858C15.5635 130.941 14.626 131.152 14.2854 131.326C13.9447 131.5 13.666 131.588 13.666 131.522C13.666 131.258 11.4732 132.521 10.712 133.223C9.70163 134.155 9.18042 134.953 8.63465 136.402C8.22344 137.494 8.07871 138.112 7.61278 140.766C7.30473 142.521 6.77083 143.854 6.18146 144.34C5.59741 144.822 5.37798 144.854 4.82613 144.536ZM13.156 118.136C13.1268 118.11 12.6976 118.035 12.2021 117.97C11.7066 117.905 11.0985 117.807 10.8508 117.752C10.4525 117.663 8.39482 117.321 7.99798 117.277C7.9154 117.268 7.77182 117.185 7.67892 117.093C7.58602 117.001 7.30996 116.926 7.06546 116.926C6.36437 116.926 4.72979 116.028 4.43341 115.481C4.22245 115.091 4.22563 114.885 4.44805 114.533C4.94387 113.747 7.69589 112.83 10.7079 112.447C15.1709 111.878 14.7846 111.747 14.9138 113.871C14.96 114.633 15.061 115.882 15.1381 116.648C15.2153 117.414 15.1943 118.051 15.0915 118.064C14.6134 118.125 13.2033 118.177 13.156 118.136ZM12.4396 108.429C11.1773 107.582 9.16161 105.748 9.16161 105.447C9.16161 105.371 8.85757 104.872 8.48595 104.338C8.11434 103.804 7.8103 103.215 7.8103 103.03C7.8103 102.845 7.72383 102.64 7.61816 102.576C7.51249 102.511 7.29344 101.692 7.1314 100.754C6.53399 97.2995 7.62807 93.9559 10.1891 91.4099C11.5388 90.0681 13.9825 88.4078 14.6076 88.4078C14.7834 88.4078 15.0235 88.3197 15.1412 88.212C15.5321 87.8544 18.4994 87.0701 19.0547 87.1776C20.0018 87.3608 20.0576 87.6308 19.4089 88.8892C19.0716 89.5435 18.7056 90.2529 18.5956 90.4656C18.4856 90.6784 18.3956 91.0421 18.3956 91.2739C18.3956 91.5056 18.2542 91.8113 18.0813 91.9532C17.9085 92.0951 17.6967 92.5836 17.6108 93.0388C17.5248 93.494 17.3687 93.9691 17.2639 94.0947C17.159 94.2203 17.0368 94.5712 16.9923 94.8745C16.9477 95.1778 16.7811 95.66 16.6219 95.946C16.4628 96.232 16.2809 96.9338 16.2177 97.5056C16.1545 98.0774 16.0226 98.6455 15.9246 98.768C15.8265 98.8905 15.69 99.5924 15.6212 100.328C15.5524 101.063 15.387 102.164 15.2536 102.775C15.0445 103.733 14.8672 106.065 14.8086 108.627C14.7858 109.628 14.147 109.575 12.4396 108.429ZM14.2291 85.9274C13.4858 85.8499 12.5737 85.7334 12.2021 85.6686C11.8305 85.6038 10.9183 85.4817 10.1751 85.3971C9.43188 85.3126 8.67176 85.1633 8.48595 85.0653C8.30015 84.9673 7.83798 84.8388 7.45891 84.7797C6.59965 84.6459 4.85725 83.78 4.51482 83.3168C4.11051 82.7698 4.61439 81.9756 5.65679 81.517C6.46469 81.1615 6.88167 81.027 8.26073 80.6772C8.44654 80.63 9.00396 80.5463 9.49944 80.491C9.99492 80.4358 10.8567 80.2854 11.4144 80.157C12.8008 79.8376 16.7839 79.6694 22.168 79.7028C25.1076 79.7211 25.2631 79.8716 23.9119 81.392C23.4774 81.8808 23.061 82.5063 22.9866 82.7821C22.9121 83.0578 22.7795 83.2834 22.6918 83.2834C22.6042 83.2834 22.294 83.7031 22.0026 84.2161C20.8732 86.2039 20.8539 86.2134 18.0624 86.1366C16.6973 86.0991 14.9723 86.0049 14.2291 85.9274ZM18.8461 78.3387C17.7467 77.6005 17.7157 76.9924 18.7425 76.3022C19.494 75.7971 19.759 75.7518 21.7462 75.789C23.6297 75.8243 24.0259 75.9004 24.664 76.3499C25.5504 76.9743 25.5425 77.5757 24.6393 78.2404C24.1324 78.6134 23.5984 78.7165 21.824 78.7843C19.8149 78.861 19.5693 78.8242 18.8461 78.3387ZM18.1704 74.7809C17.3652 74.6903 16.5038 74.5624 16.256 74.4966C16.0083 74.4308 15.3242 74.2586 14.7358 74.1138C14.1474 73.9691 13.666 73.7782 13.666 73.6895C13.666 73.6009 13.4021 73.4629 13.0796 73.3828C12.3285 73.1964 10.3208 71.7315 9.51037 70.7787C9.16588 70.3737 8.62712 69.4874 8.31311 68.8091C7.52493 67.1066 7.40581 66.7826 7.28636 66.0163C7.22906 65.6487 7.01133 64.5458 6.80252 63.5655C6.31744 61.2881 6.47427 54.3271 7.05551 52.3366C7.44741 50.9944 8.46778 49.7849 9.0285 49.9977C9.46988 50.1653 9.56391 50.825 9.58905 53.9304C9.60072 55.3708 9.72138 56.975 9.85719 57.4952C9.99301 58.0155 10.1534 58.792 10.2137 59.2209C10.3921 60.4897 11.5953 62.7217 12.9903 64.3717C13.4239 64.8844 13.8293 65.3666 13.8912 65.4431C14.2244 65.8548 15.8828 66.9825 16.3686 67.1278C16.6783 67.2205 17.0447 67.3853 17.1828 67.4941C17.9896 68.1298 24.9975 68.1339 26.1987 67.4994C26.4283 67.3781 26.9455 67.1581 27.3481 67.0105C27.7507 66.8628 28.0801 66.6539 28.0801 66.5463C28.0801 66.4386 28.2153 66.3505 28.3806 66.3505C28.7142 66.3505 30.7827 64.2774 30.7827 63.9431C30.7827 63.8267 30.9343 63.607 31.1197 63.4548C31.5732 63.0824 33.0349 60.0881 33.0349 59.5313C33.0349 59.2871 33.1389 58.9843 33.266 58.8586C33.3945 58.7315 33.5505 57.0053 33.6175 54.9707C33.7606 50.6186 33.7997 50.3816 34.4059 50.1913C34.9451 50.022 35.9627 50.8232 35.9627 51.4171C35.9627 51.6164 36.0894 51.9047 36.2443 52.0578C36.4563 52.2676 36.5258 53.8989 36.5258 58.6639C36.5258 63.4289 36.4563 65.0602 36.2443 65.2699C36.0894 65.4231 35.9627 65.8557 35.9627 66.2313C35.9627 66.6068 35.76 67.2882 35.5123 67.7455C35.2646 68.2028 35.0619 68.6845 35.0619 68.8161C35.0619 69.1997 33.7057 71.0772 32.8638 71.859C31.4702 73.153 28.0264 74.5419 25.7152 74.7418C23.5955 74.9252 19.635 74.9458 18.1704 74.7809ZM20.1928 66.3536C20.0095 66.2527 19.5486 66.1221 19.1685 66.0634C18.0505 65.8905 15.868 64.6504 14.6924 63.5201C13.3512 62.2305 12.286 60.5969 11.7893 59.0676C11.3774 57.7995 11.2754 54.653 11.639 54.4307C11.7629 54.3549 11.8642 54.1037 11.8642 53.8723C11.8642 53.641 12.0973 53.0202 12.3821 52.493C13.1743 51.0263 14.1913 49.3191 14.3468 49.1949C14.4234 49.1336 15.0314 48.3816 15.6979 47.5239C16.3643 46.6661 17.1928 45.6635 17.5389 45.2959C17.8851 44.9282 18.1688 44.5021 18.1693 44.349C18.1699 44.1958 18.2477 44.0705 18.3422 44.0705C18.5202 44.0705 18.7413 43.7191 19.2644 42.605C19.4326 42.2469 19.6606 41.7798 19.7712 41.567C19.8817 41.3542 19.9721 40.7896 19.9721 40.3123C19.9721 39.4832 19.9276 39.43 18.9739 39.1194C18.0305 38.8121 17.9471 38.82 17.4537 39.2624C15.2259 41.2599 14.2786 41.5566 13.9731 40.3524C13.8525 39.8769 13.9993 39.6238 14.8651 38.8146C15.8972 37.8501 15.9016 37.8397 15.8902 36.3742C15.8821 35.33 15.9826 34.7889 16.2363 34.5116C16.433 34.2966 16.5939 34.0163 16.5939 33.8886C16.5939 33.4204 18.3805 31.9595 19.5536 31.4684L20.7604 30.9632L20.7838 26.9567C20.7966 24.7531 20.8669 22.796 20.9399 22.6076C21.013 22.4193 21.2778 22.1566 21.5283 22.024C21.9132 21.8202 22.046 21.8768 22.3856 22.3894C22.717 22.8896 22.8071 23.6496 22.9 26.727C22.9672 28.9539 23.1108 30.5551 23.2561 30.6986C23.6256 31.0636 25.7325 30.4444 27.8774 29.3405C29.2831 28.617 29.7944 28.4512 30.0768 28.6271C30.8219 29.0912 30.6325 29.6334 29.2809 30.9052C28.5529 31.5902 27.4022 32.8023 26.7237 33.5988C26.0452 34.3953 25.4394 35.0972 25.3774 35.1584C25.1938 35.3401 24.7389 36.1016 24.2545 37.0384C23.7667 37.9818 23.6797 39.0612 24.0031 40.1556C25.483 45.163 26.0246 46.3708 27.8589 48.7546C28.5999 49.7175 29.2062 50.6115 29.2062 50.7413C29.2062 50.8711 29.2856 50.9773 29.3828 50.9773C29.5931 50.9773 30.2991 52.731 30.5936 53.9851C31.0031 55.7289 31.057 56.8658 30.7882 58.0907C30.5005 59.4019 29.6602 61.5092 29.3751 61.6346C29.2822 61.6754 29.2062 61.8102 29.2062 61.9341C29.2062 62.058 28.629 62.7539 27.9235 63.4804C26.604 64.8393 25.2846 65.7018 23.8386 66.1504C22.7948 66.4742 20.6313 66.5948 20.1928 66.3536ZM44.5774 62.2557C43.7207 61.13 43.6361 60.2326 44.3303 59.6369C44.8905 59.1563 44.9352 59.1521 46.563 59.4291C47.2361 59.5437 48.3321 59.6962 48.9985 59.7682C50.4894 59.929 50.6634 60.0279 50.3796 60.5525C50.1849 60.9124 45.9029 63.2429 45.4703 63.2244C45.3818 63.2206 44.98 62.7847 44.5774 62.2557ZM55.4824 57.2957C55.4614 57.2784 54.3294 57.2096 52.9668 57.1427C51.6042 57.0759 50.16 56.9216 49.7574 56.7998C49.3549 56.678 49.0255 56.6272 49.0255 56.6868C49.0255 56.9433 47.4961 55.9136 46.5909 55.0476C45.8593 54.3478 45.5756 53.8845 45.4895 53.2494C45.3065 51.9 45.717 51.6509 47.9255 51.7713C48.9278 51.826 49.8382 51.926 49.9488 51.9936C50.0594 52.0612 50.3689 52.1583 50.6365 52.2092C51.122 52.3017 52.3868 53.0924 53.2176 53.8226C53.8257 54.3571 54.8701 54.8979 55.6502 55.0822C56.9109 55.3802 58.3174 55.4403 58.5999 55.2083C58.7885 55.0535 58.8956 54.255 58.9169 52.8437C58.9346 51.6718 58.966 50.6471 58.9867 50.5666C59.0074 50.4861 58.9468 50.1947 58.852 49.919C58.6887 49.4443 58.5577 49.417 56.3862 49.4048C51.1759 49.3756 49.7765 49.0298 48.1166 47.3617C46.9494 46.1886 46.7222 45.4431 47.2402 44.4855C47.4572 44.0844 47.6242 44.0543 48.8731 44.1909C49.6382 44.2746 50.6414 44.3639 51.1025 44.3895C51.8024 44.4282 52.4602 44.7687 53.0794 45.413C54.4588 46.8481 57.4923 48.0464 58.6536 47.6151C59.1403 47.4343 59.1603 47.3213 59.1603 44.7592C59.1603 43.292 59.0785 42.0415 58.9786 41.9804C58.7644 41.8494 57.1678 41.6841 54.2055 41.4861C51.0634 41.276 49.5553 40.4087 48.6641 38.2989C48.383 37.6335 48.3862 37.4761 48.6898 37.0178C48.9984 36.5517 49.2771 36.4337 50.039 36.4461C50.1628 36.4481 50.8937 36.5732 51.6632 36.724C52.6799 36.9232 53.2339 37.1729 53.6902 37.6375C54.9362 38.9063 56.3627 39.6482 57.8052 39.7776L59.1603 39.8991V36.9718C59.1603 35.3617 59.0843 34.0347 58.9914 34.0228C58.8985 34.011 57.9611 33.9647 56.9081 33.92C54.0621 33.7991 52.4645 33.4152 51.5681 32.6366C50.6414 31.8316 50.1516 30.945 50.1516 30.0724C50.1516 29.1146 50.6163 28.8462 52.0074 29.0005C52.659 29.0728 53.3077 29.1344 53.4491 29.1374C53.5905 29.1404 54.2025 29.6313 54.8092 30.2283C56.0802 31.4791 57.4918 32.262 58.4757 32.262H59.1603V29.1428V26.0236L57.4149 26.0015C56.4549 25.9893 55.4161 25.9555 55.1064 25.9262C54.5047 25.8694 53.148 25.237 52.7441 24.825C52.292 24.364 51.7281 22.9544 51.7281 22.2853C51.7281 21.2451 52.1668 21.0351 53.5131 21.4306C54.1417 21.6153 54.6571 21.6966 54.6584 21.6113C54.6597 21.526 55.2566 22.0909 55.9847 22.8666C57.0963 24.0508 57.457 24.2967 58.2344 24.3998C59.1302 24.5187 59.161 24.5018 59.1799 23.8806C59.1906 23.5275 59.2313 22.2107 59.2702 20.9544C59.3091 19.6981 59.2739 18.6292 59.1921 18.5792C59.1102 18.5291 58.4362 18.4311 57.6942 18.3614C55.1683 18.1239 54.6106 17.8387 53.7669 16.3526C53.2577 15.4557 53.1448 13.8594 53.5803 13.7158C53.732 13.6658 54.2562 13.6973 54.7453 13.7857C55.6064 13.9415 56.1075 14.3557 57.2375 15.8456C57.4805 16.1661 57.9713 16.5479 58.3281 16.6941C59.2325 17.0647 59.3741 16.7521 59.4006 14.3266C59.4127 13.2237 59.4634 12.0707 59.5133 11.7644C59.6558 10.8893 59.3317 10.6373 57.9015 10.5112C56.2466 10.3654 55.5124 9.75043 54.9749 8.05974C54.6686 7.09644 54.6502 6.80387 54.8788 6.53137C55.5446 5.73782 57.0337 6.45237 57.7272 7.89814C58.1038 8.68324 58.7955 9.12714 59.3293 8.92625C59.5292 8.851 59.6108 8.15878 59.6108 6.53797C59.6108 4.27774 59.3549 3.01571 58.7814 2.44653C58.0246 1.69554 58.7279 0.279182 59.9723 0.0482397C60.9159 -0.126875 61.7048 0.178406 62.1859 0.904842C62.4731 1.33834 62.486 1.55095 62.2611 2.14039C62.1117 2.53197 61.9149 2.85235 61.8238 2.85235C61.5876 2.85235 61.4422 3.96349 61.3372 6.57153C61.2305 9.22437 61.4553 9.54066 62.5306 8.25016C62.9066 7.79887 63.2143 7.34505 63.2143 7.24168C63.2143 6.61051 64.847 6.00097 65.3754 6.43484C65.8393 6.81567 65.7618 7.84558 65.185 8.96646C64.6114 10.081 63.988 10.4606 62.5682 10.5601C62.027 10.5981 61.5202 10.6925 61.4421 10.77C61.1985 11.0115 61.3424 16.4629 61.599 16.7168C62.0044 17.1178 63.1788 16.4631 63.891 15.4391C64.7688 14.1769 66.143 13.5274 67.1372 13.9048C67.5406 14.0579 67.6462 15.6551 67.2682 15.8862C67.1444 15.9619 67.043 16.1672 67.043 16.3424C67.043 16.7892 66.3723 17.5312 65.6098 17.9277C65.2551 18.1122 64.2416 18.3166 63.3576 18.3819C62.4736 18.4471 61.649 18.594 61.5252 18.7083C61.2011 19.0072 61.1745 24.0868 61.4958 24.2935C61.9109 24.5604 62.9664 24.487 63.6356 24.1447C63.9789 23.9691 64.6921 23.3476 65.2204 22.7636C65.9113 22 66.3684 21.689 66.8481 21.6562C67.2151 21.631 67.7495 21.5523 68.0358 21.4812C68.3889 21.3936 68.6851 21.4927 68.9564 21.7893C69.312 22.178 69.3249 22.338 69.0724 23.23C68.768 24.3056 67.7993 25.474 66.9457 25.7951C66.657 25.9037 65.4378 26.0198 64.2363 26.0532C61.3166 26.1343 61.3141 26.137 61.2484 29.237C61.2162 30.7558 61.29 31.7818 61.4449 31.9663C61.8117 32.4037 63.3323 32.3252 64.3393 31.817C64.8243 31.5722 65.6564 30.9614 66.1884 30.4596C67.4345 29.2842 67.6199 29.1945 68.9622 29.1168C71.1221 28.9917 71.5835 29.5944 70.6516 31.324C69.9948 32.543 69.7292 32.816 68.6888 33.3411C67.8981 33.7401 67.2586 33.8302 64.7214 33.8994C63.0579 33.9449 61.5797 34.0536 61.4366 34.1411C61.2608 34.2486 61.1849 35.1602 61.2028 36.9489C61.2321 39.8716 61.209 39.8293 62.7904 39.8666C64.456 39.9059 65.7808 39.37 67.2682 38.0555C68.2174 37.2166 68.6918 36.9896 69.7457 36.87C70.3031 36.8067 71.0291 36.6878 71.359 36.6058C71.8042 36.4951 72.08 36.5765 72.4288 36.9215C73.1916 37.6761 73.0048 38.5279 71.7726 39.9133C70.6151 41.2149 69.417 41.5105 64.3404 41.7466C60.8992 41.9067 61.1873 41.6341 61.1873 44.7299C61.1873 46.5534 61.2719 47.4379 61.4572 47.5512C61.7921 47.7559 64.9672 47.6921 65.3206 47.4735C65.4628 47.3856 65.7146 47.2933 65.8802 47.2685C66.2078 47.2194 67.6096 46.2991 68.3006 45.6793C69.3657 44.7242 69.9674 44.5169 72.0704 44.3808L74.1885 44.2437L74.4101 44.8812C74.8543 46.1596 73.8359 47.7029 71.8852 48.7072C70.8042 49.2638 70.5798 49.2905 66.2718 49.3753C62.9436 49.4408 61.7072 49.5399 61.4858 49.7589C61.2744 49.9681 61.1873 50.7637 61.1873 52.4852C61.1873 54.7907 61.2135 54.9278 61.6941 55.1422C61.9728 55.2666 62.3782 55.3417 62.5949 55.3091C63.1379 55.2276 63.0929 55.5935 62.5386 55.7675C62.2909 55.8453 62.0882 55.9957 62.0882 56.1017C62.0882 56.2751 61.47 56.5662 61.1873 56.5259C61.1254 56.5171 60.5593 56.7108 59.9295 56.9564C59.1052 57.2778 58.3268 57.3924 57.1524 57.365C56.2548 57.3442 55.5033 57.313 55.4824 57.2957ZM69.3813 53.8312C69.3007 53.7022 69.5345 53.3196 69.9009 52.9809C70.4068 52.5131 70.8881 52.328 71.9018 52.2109C72.6359 52.1261 73.642 51.9857 74.1374 51.8988C74.6329 51.8119 75.165 51.757 75.3198 51.7768C75.4747 51.7966 75.7027 51.8253 75.8266 51.8406C75.9505 51.8559 76.0518 52.0073 76.0518 52.177C76.0518 52.5228 74.287 53.1588 72.8315 53.3377C72.3111 53.4016 71.6319 53.5457 71.3222 53.658C70.371 54.0027 69.535 54.0773 69.3813 53.8312Z" fill="#E9E9E7"/>
</g>
<defs>
<clipPath id="clip0_3_151">
<rect width="107" height="187" fill="white"/>
</clipPath>
</defs>
</svg>
